<svg viewBox="0 0 600 400" xmlns="http://www.w3.org/2000/svg"><path fill="url(#grad-health)" d="M0 0H600V400H0z"/><g transform="translate(300, 200)"><g transform="translate(0, 0)"><ellipse cy="50" rx="45" ry="60" opacity=".3"/><rect x="-35" y="20" width="70" height="80" rx="20" opacity=".5"/><ellipse cx="-45" cy="50" rx="20" ry="40" opacity=".4" transform="rotate(-20 -45 50)"/><ellipse cx="45" cy="50" rx="20" ry="40" opacity=".4" transform="rotate(20 45 50)"/><circle cy="-10" r="35"/><circle cy="-10" r="35" stroke-width="1.5" fill="none"/><circle cx="-12" cy="-15" r="3" opacity=".6"/><circle cx="12" cy="-15" r="3" opacity=".6"/><path d="M-8,-2 Q0,3 8,-2" stroke-width="2" stroke-linecap="round" fill="none"/><circle cx="-20" cy="-5" r="6" opacity=".2"/><circle cx="20" cy="-5" r="6" opacity=".2"/><path d="M-35,-10 Q-35,-35 -15,-40 Q0,-42 15,-40 Q35,-35 35,-10" opacity=".2"/><path d="M-20,-35 Q-15,-38 -10,-35" stroke-width="2" opacity=".2" stroke-linecap="round" fill="none"/><path d="M10,-35 Q15,-38 20,-35" stroke-width="2" opacity=".2" stroke-linecap="round" fill="none"/><ellipse cx="-20" cy="100" rx="15" ry="25" opacity=".4"/><ellipse cx="20" cy="100" rx="15" ry="25" opacity=".4"/></g><g transform="translate(-120, -50)"><path d="M0,5 Q-10,-5 -10,-10 Q-10,-15 -5,-15 Q0,-15 0,-10 Q0,-15 5,-15 Q10,-15 10,-10 Q10,-5 0,5 Z" opacity=".6"/><path d="M-3,-8 L-1,-5 L3,-10" stroke-width="2" stroke-linecap="round" fill="none"/></g><path d="M0,-15 L4,-5 L15,-3 L7,5 L4,15 L0,7 L-4,15 L-7,5 L-15,-3 L-4,-5 Z" opacity=".4" transform="translate(120, -50)"/><g transform="translate(-80, 120)"><circle r="20" opacity=".3"/><path d="M-20,0 Q-10,-5 0,0 Q10,-5 20,0" stroke-width="2" fill="none" opacity=".5"/><path d="M0,-20 L0,20" stroke-width="2" opacity=".5"/></g><g transform="translate(80, 120)"><path opacity=".4" d="M-15-15H15V15H-15z"/><path stroke-width="2" fill="none" d="M-15-15H15V15H-15z"/><circle cx="0" cy="0" r="5"/></g><g transform="translate(0, -80)"><circle r="60" opacity=".05"/><circle r="40" opacity=".05"/><circle r="20" opacity=".05"/></g></g><path fill="url(#dots)" opacity=".5" d="M50 50H90V90H50z"/><path fill="url(#dots)" opacity=".5" d="M510 310H550V350H510z"/></svg>