<svg viewBox="0 0 600 400" xmlns="http://www.w3.org/2000/svg"><path fill="url(#grad-services)" d="M0 0H600V400H0z"/><g transform="translate(300, 200)"><ellipse cx="0" cy="100" rx="200" ry="30" opacity=".1"/><g transform="translate(-150, -50)"><rect x="-60" y="-60" width="120" height="140" rx="15" opacity=".95"/><rect x="-60" y="-60" width="120" height="140" rx="15" stroke-width="2" fill="none"/><g transform="translate(0, -10)"><rect x="-40" y="-20" width="80" height="60" opacity=".1" rx="5"/><path d="M-30,20 L-15,5 L0,-5 L15,-15 L30,-20" stroke-width="2" fill="none"/><circle cx="-30" cy="20" r="3"/><circle cx="-15" cy="5" r="3"/><circle cx="0" cy="-5" r="3"/><circle cx="15" cy="-15" r="3"/><circle cx="30" cy="-20" r="3"/></g><path d="M0,-10 L3,-3 L10,-2 L5,3 L3,10 L0,4 L-3,10 L-5,3 L-10,-2 L-3,-3 Z" opacity=".8" transform="translate(0, 45)"/></g><g transform="translate(0, -70)"><rect x="-60" y="-60" width="120" height="140" rx="15" opacity=".95"/><rect x="-60" y="-60" width="120" height="140" rx="15" stroke-width="2" fill="none"/><g transform="translate(0, -10)"><rect x="-8" y="-30" width="16" height="40" rx="8" opacity=".3"/><rect x="-8" y="-30" width="16" height="25" rx="8"/><path d="M-3-40H3V-30H-3z"/><path d="M-1,-38 L1,-38" stroke-width="2"/><circle cy="15" r="5"/></g><g transform="translate(0, 45)"><path d="M0,-8 L-10,-3 L-10,5 Q-10,12 0,15 Q10,12 10,5 L10,-3 Z" opacity=".5"/><path d="M0,-4 L0,8 M-5,2 L5,2" stroke-width="2"/></g></g><g transform="translate(150, -50)"><rect x="-60" y="-60" width="120" height="140" rx="15" opacity=".95"/><rect x="-60" y="-60" width="120" height="140" rx="15" stroke-width="2" fill="none"/><g transform="translate(0, -10)"><path d="M-10,-20 Q5,-25 10,-10 Q5,5 -10,0 Q-5,-10 -10,-20" opacity=".5"/><path d="M0,0 L2,-2 L0,-4 L-2,-2 Z" opacity=".6" transform="translate(20, -15)"/><path d="M0,0 L1.5,-1.5 L0,-3 L-1.5,-1.5 Z" opacity=".4" transform="translate(25, 5)"/><text x="0" y="25" text-anchor="middle" font-family="Arial" font-size="20" font-weight="bold" opacity=".3">ZZZ</text></g><g transform="translate(0, 45)"><circle r="10" opacity=".3"/><circle r="10" stroke-width="2" fill="none"/><path d="M0,-5 L0,0 L4,4" stroke-width="2" stroke-linecap="round"/></g></g><g transform="translate(0, 80)"><rect x="-80" y="-40" width="160" height="80" rx="15" opacity=".95"/><rect x="-80" y="-40" width="160" height="80" rx="15" stroke-width="2" fill="none"/><g transform="translate(0, -5)"><circle cx="-25" cy="-10" r="8"/><path d="M-25,-2 L-25,15" stroke-width="3" stroke-linecap="round"/><circle cx="25" cy="-10" r="8"/><path d="M25,-2 L25,15" stroke-width="3" stroke-linecap="round"/><circle cx="0" cy="-5" r="6"/><path d="M0,1 L0,15" stroke-width="3" stroke-linecap="round"/><path d="M-25,5 Q-12.5,10 0,5 Q12.5,10 25,5" stroke-width="2" fill="none" opacity=".5"/></g></g></g><circle r="3" opacity=".5" transform="translate(80, 80)"/><circle r="3" opacity=".5" transform="translate(520, 100)"/><circle r="3" opacity=".5" transform="translate(100, 320)"/><circle r="3" opacity=".5" transform="translate(500, 330)"/></svg>