<svg viewBox="0 0 600 400" xmlns="http://www.w3.org/2000/svg"><path fill="url(#grad-contact)" d="M0 0H600V400H0z"/><g transform="translate(300, 200)"><rect x="-100" y="-140" width="200" height="280" rx="25" opacity=".95"/><rect x="-100" y="-140" width="200" height="280" rx="25" stroke-width="2" fill="none"/><rect x="-85" y="-120" width="170" height="240" rx="15" opacity=".05"/><rect x="-30" y="-130" width="60" height="5" rx="2.5" opacity=".3"/><g transform="translate(0, -80)"><circle r="25" opacity=".2"/><path d="M-8,-8 Q-10,-10 -10,-12 Q-10,-14 -8,-14 L-4,-14 Q-2,-14 -1,-12 L1,-8 Q2,-6 1,-4 L-1,0 Q-2,2 -4,1 L-8,-1 Q-10,-2 -10,-4 Q-10,-6 -8,-8"/><path d="M8,8 Q10,10 10,12 Q10,14 8,14 L4,14 Q2,14 1,12 L-1,8 Q-2,6 -1,4 L1,0 Q2,-2 4,-1 L8,1 Q10,2 10,4 Q10,6 8,8" opacity=".5"/></g><g transform="translate(0, -20)"><circle r="25" opacity=".2"/><path d="M0,-12 Q-8,-12 -8,-4 Q-8,4 0,12 Q8,4 8,-4 Q8,-12 0,-12 Z"/><circle cy="-4" r="3"/></g><g transform="translate(0, 40)"><circle r="25" opacity=".2"/><rect x="-12" y="-8" width="24" height="16" rx="2" opacity=".8"/><path d="M-12,-8 L0,0 L12,-8" stroke-width="2" stroke-linecap="round" fill="none"/></g><circle cy="115" r="15" opacity=".2"/><circle cy="115" r="15" stroke-width="2" fill="none"/><g transform="translate(180, -50)"><rect x="-50" y="-30" width="100" height="60" rx="10" opacity=".2"/><path d="M-30,30 L-20,30 L-25,40 Z" opacity=".2"/><rect x="-35" y="-15" width="50" height="5" rx="2.5" opacity=".5"/><rect x="-35" y="-5" width="70" height="5" rx="2.5" opacity=".5"/><rect x="-35" y="5" width="40" height="5" rx="2.5" opacity=".5"/></g><g transform="translate(-180, 50)"><circle r="30" opacity=".2"/><circle r="30" stroke-width="2" fill="none"/><circle r="3"/><path d="M0,-3 L0,-15" stroke-width="2" stroke-linecap="round"/><path d="M0,0 L10,10" stroke-width="2" stroke-linecap="round"/><circle cy="-22" r="2" opacity=".5"/><circle cy="22" r="2" opacity=".5"/><circle cx="-22" r="2" opacity=".5"/><circle cx="22" r="2" opacity=".5"/></g></g><path d="M0,350 Q150,330 300,350 T600,350 L600,400 L0,400 Z" opacity=".05"/></svg>