<svg viewBox="0 0 600 400" xmlns="http://www.w3.org/2000/svg"><path fill="url(#grad-doctor)" d="M0 0H600V400H0z"/><g transform="translate(300, 200)"><ellipse cx="0" cy="80" rx="70" ry="90" opacity=".95"/><rect x="-60" y="20" width="120" height="150" rx="30"/><rect x="-55" y="30" width="110" height="140" rx="25" opacity=".15"/><rect x="-55" y="30" width="110" height="140" rx="25" stroke-width="2" fill="none"/><ellipse cx="-65" cy="80" rx="25" ry="60" transform="rotate(-15 -65 80)"/><ellipse cx="65" cy="80" rx="25" ry="60" transform="rotate(15 65 80)"/><path d="M-30,30 L-20,20 L0,25 L20,20 L30,30"/><path d="M-30,30 L-20,20 L0,25 L20,20 L30,30" stroke-width="1.5" fill="none"/><circle cy="-20" r="45" opacity=".95"/><circle cy="-20" r="45" stroke-width="1.5" fill="none"/><circle cx="-15" cy="-25" r="3" opacity=".7"/><circle cx="15" cy="-25" r="3" opacity=".7"/><path d="M-10,-10 Q0,-5 10,-10" stroke-width="2" stroke-linecap="round" fill="none"/><path d="M-45,-20 Q-45,-50 -20,-55 Q0,-58 20,-55 Q45,-50 45,-20" opacity=".2"/><g transform="translate(0, 60)"><path d="M-30,0 Q-35,-10 -35,-20 Q-35,-30 -25,-35 L25,-35 Q35,-30 35,-20 Q35,-10 30,0" stroke-width="3" fill="none" stroke-linecap="round"/><circle cx="0" cy="5" r="12" opacity=".8"/><circle cx="0" cy="5" r="8"/><circle cx="0" cy="5" r="12" stroke-width="2" fill="none"/></g><rect x="-30" y="45" width="60" height="20" rx="5" opacity=".3"/><rect x="-30" y="45" width="60" height="20" rx="5" stroke-width="1" fill="none"/><path stroke-width="2" d="M-20 55 20 55"/><rect x="-40" y="90" width="30" height="25" rx="5" opacity=".1"/><rect x="10" y="90" width="30" height="25" rx="5" opacity=".1"/></g><g transform="translate(100, 100)"><circle r="25" opacity=".2"/><path d="M0,-15 L0,15 M-15,0 L15,0" stroke-width="3" stroke-linecap="round"/></g><g transform="translate(500, 150)"><rect x="-20" y="-20" width="40" height="40" rx="10" opacity=".2"/><path d="M0,-10 L0,10 M-10,0 L10,0" stroke-width="3" stroke-linecap="round"/></g><path d="M-40,0 L-30,-5 L-20,5 L-10,-10 L0,15 L10,-8 L20,3 L30,0 L40,0" stroke-width="2" fill="none" opacity=".5" transform="translate(450, 320)"/></svg>