<svg xmlns="http://www.w3.org/2000/svg" viewBox="0 0 48 48"
     fill="none" stroke="currentColor" stroke-width="2"
     stroke-linecap="round" stroke-linejoin="round">
  <!-- Shield shape - organic, slightly rounded -->
  <path d="M24 6 C18 6, 10 8, 8 10 C8 22, 10 30, 16 36 C20 40, 24 42, 24 42 C24 42, 28 40, 32 36 C38 30, 40 22, 40 10 C38 8, 30 6, 24 6Z" />
  <!-- Accent: shield inner fill -->
  <path class="accent" d="M24 10 C20 10, 14 11.5, 12 13 C12 22, 13.5 28, 18 33 C21 36, 24 38, 24 38 C24 38, 27 36, 30 33 C34.5 28, 36 22, 36 13 C34 11.5, 28 10, 24 10Z"
        fill="currentColor" stroke="none" opacity="0.12" />
  <!-- Droplet inside shield -->
  <path d="M24 18 C24 18, 20 24, 20 27 C20 29.5, 21.8 31, 24 31 C26.2 31, 28 29.5, 28 27 C28 24, 24 18, 24 18Z" />
  <!-- Small shine on droplet -->
  <circle cx="22.5" cy="25.5" r="1" fill="currentColor" stroke="none" opacity="0.2" />
  <!-- Plus/cross symbol above droplet (medical) -->
  <line x1="24" y1="13" x2="24" y2="17" stroke-width="1.5" />
  <line x1="22" y1="15" x2="26" y2="15" stroke-width="1.5" />
</svg>
