<svg id="Layer_1" data-name="Layer 1" xmlns="http://www.w3.org/2000/svg" viewBox="0 0 424.99 141.78"><defs><style>.cls-1{fill:#386d6f;}.cls-2{fill:#6abf70;}</style></defs><title>logo</title><path class="cls-1" d="M56.94,125.58a18,18,0,0,1-8.84-2.14L8.84,100.77A19.27,19.27,0,0,1,0,85.46V40.12a19.24,19.24,0,0,1,8.84-15.3L48.1,2.15a19.26,19.26,0,0,1,17.68,0L105,24.82a19.26,19.26,0,0,1,8.84,15.3V85.46A19.3,19.3,0,0,1,105,100.77L65.78,123.44A18,18,0,0,1,56.94,125.58Zm0-117.73A10.16,10.16,0,0,0,52,9L12.77,31.63a11.39,11.39,0,0,0-4.9,8.49V85.46A11.39,11.39,0,0,0,12.77,94L52,116.62a11.37,11.37,0,0,0,9.8,0L101.1,94A11.37,11.37,0,0,0,106,85.46V40.12a11.37,11.37,0,0,0-4.91-8.49L61.84,9A10.16,10.16,0,0,0,56.94,7.85Z"/><path class="cls-1" d="M354.25,99.79a6.09,6.09,0,1,1,6.08-6.09A6.09,6.09,0,0,1,354.25,99.79Zm0-11.17a5.08,5.08,0,1,0,5.08,5.08A5.09,5.09,0,0,0,354.25,88.62Z"/><path class="cls-1" d="M356.14,92.79a1.19,1.19,0,0,1-1,1.28.83.83,0,0,1,.33.36l.73,1.39c0,.1,0,.17-.09.17h-.29c-.22,0-.28,0-.34-.14l-.6-1.18a.79.79,0,0,0-.86-.51h-.71v1.67c0,.12,0,.16-.17.16h-.29c-.13,0-.18,0-.18-.16V91.58c0-.12.05-.17.18-.17h1.84A1.29,1.29,0,0,1,356.14,92.79Zm-1.48-.8h-1.32v1.58h1.32a.73.73,0,0,0,.82-.78A.74.74,0,0,0,354.66,92Z"/><path class="cls-1" d="M141.46,75.65C143.58,83,148.77,87,156.43,87c6.48,0,12.37-2.35,12.37-8.48,0-3.18-1.77-6.13-9.55-8.84l-8.95-3.06c-18.27-6.25-21-17.68-21-24.52,0-14.85,11.67-24,27.81-24,12.73,0,22.63,6.13,27.58,18l-14.85,7.43c-3.54-8.37-9.31-9.31-12.73-9.31-5.65,0-10,2.24-10,7.66,0,2.12.58,6,8.83,8.84l8.73,3.06c18.5,5.78,21.8,16.85,21.92,24.4,0,17.32-15.09,25-29.59,25-15.79,0-30.16-9-31.81-24.28Z"/><path class="cls-1" d="M235.27,18a42.55,42.55,0,1,1-42.9,42.55A42.73,42.73,0,0,1,235.27,18Zm0,68.36c13.55,0,24.75-10.73,24.75-25.81s-11.2-25.81-24.75-25.81S210.4,45.48,210.4,60.57,221.6,86.38,235.27,86.38Z"/><path class="cls-1" d="M298.68,75.65C300.8,83,306,87,313.65,87c6.48,0,12.37-2.35,12.37-8.48,0-3.18-1.77-6.13-9.54-8.84l-9-3.06c-18.27-6.25-21-17.68-21-24.52,0-14.85,11.67-24,27.82-24,12.72,0,22.62,6.13,27.57,18l-14.85,7.43c-3.53-8.37-9.31-9.31-12.72-9.31-5.66,0-10,2.24-10,7.66,0,2.12.59,6,8.84,8.84l8.72,3.06c18.5,5.78,21.8,16.85,21.92,24.4,0,17.32-15.09,25-29.58,25-15.79,0-30.17-9-31.82-24.28Z"/><path class="cls-2" d="M127.53,134.75l7.74-20.07h4.33l7.86,20.07h-4.64L141.38,131v.06h-7.89V131l-1.37,3.76Zm7.17-7.34h5.42l-2.67-8Z"/><path class="cls-2" d="M149.41,141.46V120h4.27v2.15a5.26,5.26,0,0,1,4.62-2.47c4.47,0,7.17,3.45,7.17,7.75,0,4.13-2.5,7.6-7.09,7.6a5.88,5.88,0,0,1-4.7-2.33v8.72Zm8-18.27a3.69,3.69,0,0,0-3.85,4c0,2.72,1.64,4.39,4,4.39s3.67-1.9,3.67-4.16S159.76,123.19,157.41,123.19Z"/><path class="cls-2" d="M168.27,141.46V120h4.28v2.15a5.26,5.26,0,0,1,4.61-2.47c4.48,0,7.17,3.45,7.17,7.75,0,4.13-2.49,7.6-7.08,7.6a5.88,5.88,0,0,1-4.7-2.33v8.72Zm8-18.27a3.69,3.69,0,0,0-3.84,4c0,2.72,1.64,4.39,4,4.39s3.67-1.9,3.67-4.16S178.62,123.19,176.27,123.19Z"/><path class="cls-2" d="M191.29,123.25a4.2,4.2,0,0,1,4.05-3.53,4.34,4.34,0,0,1,1.09.12v4.21a9.14,9.14,0,0,0-1.81-.2,3,3,0,0,0-3.21,2.9v8h-4.27V120h4.15Z"/><path class="cls-2" d="M205.63,119.72c4.3,0,8.09,3.1,8.09,7.66s-3.79,7.69-8.09,7.69-8.09-3.07-8.09-7.69S201.36,119.72,205.63,119.72Zm0,11.68a4,4,0,1,0-3.93-4A4,4,0,0,0,205.63,131.4Z"/><path class="cls-2" d="M231.66,120v14.71h-4.27V132.6a5.28,5.28,0,0,1-4.62,2.47c-4.47,0-7.17-3.44-7.17-7.75,0-4.13,2.5-7.6,7.09-7.6a5.88,5.88,0,0,1,4.7,2.33v-2Zm-8,11.56a3.69,3.69,0,0,0,3.85-4c0-2.72-1.64-4.39-4-4.39s-3.67,1.9-3.67,4.16S221.31,131.6,223.66,131.6Z"/><path class="cls-2" d="M242.64,119.72a9.65,9.65,0,0,1,6,2.18L246.72,125a5.9,5.9,0,0,0-3.88-1.46c-2.49,0-4.15,1.57-4.15,3.81s1.66,3.81,4.15,3.81a5.9,5.9,0,0,0,3.88-1.46l1.94,3.13a9.65,9.65,0,0,1-6,2.18c-5,0-8.23-3.3-8.23-7.66S237.6,119.72,242.64,119.72Z"/><path class="cls-2" d="M251.19,114h4.27v8a5.23,5.23,0,0,1,4.56-2.33c4.13,0,5.24,3.3,5.24,7v8H261v-7.91c0-2-.74-3.59-2.72-3.59s-2.81,1.58-2.81,3.61v7.89h-4.27Z"/><path class="cls-2" d="M281,120h4.07v3.36H281v6.88c0,.63.26,1.29,1.09,1.29s1.12-.69,1.12-1.38a4.48,4.48,0,0,0-.2-1.26h3.38a4.27,4.27,0,0,1,.35,1.75c0,2.18-1.44,4.39-4.91,4.39-2.58,0-5.1-.92-5.1-5.19V123.4h-2.21V120h2.52l.66-3.61H281Z"/><path class="cls-2" d="M296.06,119.72c4.3,0,8.08,3.1,8.08,7.66a7.77,7.77,0,0,1-8.08,7.69c-4.28,0-8.09-3.07-8.09-7.69S291.78,119.72,296.06,119.72Zm0,11.68a4,4,0,1,0-3.93-4A3.95,3.95,0,0,0,296.06,131.4Z"/><path class="cls-2" d="M314.43,134.75V114.68h13.34v3.53h-8.89v4.93h7.71v3.52h-7.71v8.09Z"/><path class="cls-2" d="M344.31,132.17a9.25,9.25,0,0,1-6.85,2.9c-5.45,0-8.44-3.42-8.44-7.6a7.76,7.76,0,0,1,8.12-7.75c4.07,0,8,2.82,8,8.67H333.27c.08,1.83,1.78,3.18,4.5,3.18a6.23,6.23,0,0,0,4.07-1.75Zm-11-6.37h7.38c-.29-1.89-2.21-2.61-3.65-2.61A3.67,3.67,0,0,0,333.35,125.8Z"/><path class="cls-2" d="M362,132.17a9.25,9.25,0,0,1-6.85,2.9c-5.45,0-8.43-3.42-8.43-7.6a7.75,7.75,0,0,1,8.11-7.75c4.07,0,8,2.82,8,8.67H350.93c.09,1.83,1.78,3.18,4.5,3.18a6.23,6.23,0,0,0,4.07-1.75Zm-11-6.37h7.37c-.29-1.89-2.21-2.61-3.65-2.61A3.65,3.65,0,0,0,351,125.8Z"/><path class="cls-2" d="M380.46,114v20.73h-4.27V132.6a5.28,5.28,0,0,1-4.62,2.47c-4.47,0-7.17-3.44-7.17-7.75,0-4.13,2.5-7.6,7.09-7.6a5.88,5.88,0,0,1,4.7,2.33v-8Zm-8,17.58a3.69,3.69,0,0,0,3.84-4c0-2.72-1.63-4.39-3.95-4.39s-3.67,1.9-3.67,4.16S370.11,131.6,372.46,131.6Z"/><path class="cls-2" d="M386.39,113.7a2.54,2.54,0,0,1,2.73,2.44,2.5,2.5,0,0,1-2.73,2.38,2.46,2.46,0,0,1-2.69-2.38A2.49,2.49,0,0,1,386.39,113.7Zm-2.18,21V120h4.28v14.71Z"/><path class="cls-2" d="M392.21,120h4.28v2a5.23,5.23,0,0,1,4.56-2.33c4.13,0,5.24,3.3,5.24,7v8H402v-7.91c0-2-.75-3.59-2.72-3.59s-2.81,1.58-2.81,3.61v7.89h-4.28Z"/><path class="cls-2" d="M425,133.72c0,5.79-3.79,8.06-8,8.06-3.26,0-5.47-.83-7-2l1.69-3.33a7.75,7.75,0,0,0,4.41,1.67c2.21,0,4.56-.66,4.56-3.87V132.6a5.26,5.26,0,0,1-4.61,2.47c-4.48,0-7.17-3.44-7.17-7.75,0-4.13,2.49-7.6,7.08-7.6a5.88,5.88,0,0,1,4.7,2.33v-2H425Zm-8-2.12a3.69,3.69,0,0,0,3.84-4c0-2.72-1.64-4.39-4-4.39s-3.67,1.9-3.67,4.16S414.63,131.6,417,131.6Z"/><polygon class="cls-2" points="83.79 61.11 51.52 43.6 51.52 24.35 83.79 41.86 83.79 61.11"/><polygon class="cls-1" points="69.96 22.64 102.23 40.15 83.79 41.9 51.52 24.39 69.96 22.64"/><polyline class="cls-2" points="65.35 82.02 33.08 64.51 33.08 45.26 65.35 62.77"/><polyline class="cls-1" points="65.35 62.81 33.08 45.3 51.52 43.56 83.79 61.07"/><polyline class="cls-2" points="46.91 102.94 14.63 85.43 14.63 66.17 46.91 83.69"/><polyline class="cls-1" points="46.91 83.72 14.63 66.22 33.08 64.47 65.35 81.98"/></svg>